<?xml version="1.0" encoding="UTF-8"?>
<svg id="Capa_2" data-name="Capa 2" xmlns="http://www.w3.org/2000/svg" viewBox="0 0 528.06 139.26">
  <g id="Capa_1-2" data-name="Capa 1">
    <g>
      <g>
        <g>
          <path d="m270.26,122.15l-.09-13.27,3.82-.03c1.24,0,2.36.26,3.37.81,1.01.55,1.81,1.33,2.38,2.34.58,1.01.87,2.16.88,3.45,0,1.24-.27,2.36-.84,3.37-.57,1.01-1.35,1.81-2.35,2.39-1,.59-2.11.88-3.35.89l-3.82.03Zm3.8-1.76c.88,0,1.68-.22,2.39-.65.71-.43,1.27-1.01,1.68-1.76.41-.74.61-1.58.61-2.5,0-.98-.22-1.84-.63-2.59-.41-.75-.98-1.32-1.7-1.71-.72-.4-1.52-.59-2.42-.59h-1.98s.07,9.81.07,9.81h1.98Z" fill="#0086af"/>
          <path d="m287.41,122.03l-.09-13.27,8.57-.06v1.73s-6.72.05-6.72.05l.03,4.02,6.12-.04v1.73s-6.11.04-6.11.04l.03,4.04,6.74-.05v1.73s-8.56.06-8.56.06Z" fill="#0086af"/>
          <path d="m306.72,121.89l-5.09-13.23h1.98s3.95,10.47,3.95,10.47l3.8-10.54h1.9s-4.91,13.29-4.91,13.29h-1.63Z" fill="#0086af"/>
          <path d="m319.67,121.8l-.09-13.27,8.57-.06v1.73s-6.72.05-6.72.05l.03,4.02,6.12-.04v1.73s-6.11.04-6.11.04l.03,4.04,6.74-.05v1.73s-8.56.06-8.56.06Z" fill="#0086af"/>
          <path d="m335.19,121.69l-.09-13.27h1.84s.08,11.52.08,11.52l6.22-.04v1.73s-8.05.06-8.05.06Z" fill="#0086af"/>
          <path d="m354.6,121.72c-1.09,0-2.09-.25-3.01-.79-.92-.53-1.65-1.31-2.2-2.33-.55-1.02-.83-2.23-.84-3.62,0-1.4.25-2.62.79-3.66.54-1.04,1.26-1.83,2.17-2.37.91-.54,1.91-.82,2.99-.83,1.09,0,2.09.25,3.02.78.92.53,1.66,1.31,2.22,2.34.56,1.03.84,2.25.85,3.65,0,1.39-.26,2.6-.8,3.63-.54,1.03-1.27,1.82-2.19,2.36-.91.54-1.92.82-3,.83Zm-.01-1.88c.73,0,1.41-.19,2.04-.54.62-.36,1.12-.91,1.49-1.65.37-.74.55-1.65.54-2.73,0-1.07-.2-1.98-.58-2.72-.38-.74-.88-1.29-1.5-1.65-.62-.36-1.31-.54-2.08-.54-.73,0-1.41.19-2.02.56-.61.36-1.1.92-1.46,1.65-.36.74-.54,1.65-.53,2.74,0,1.09.2,2,.57,2.73.37.73.87,1.28,1.49,1.63.62.36,1.3.53,2.03.53Z" fill="#0086af"/>
          <path d="m367.37,121.47l-.09-13.29,4.84-.03c.84,0,1.6.19,2.27.58.67.39,1.19.91,1.55,1.56.37.65.55,1.35.56,2.1,0,.88-.17,1.65-.53,2.3-.36.65-.88,1.15-1.55,1.49-.67.34-1.46.52-2.35.53l-2.88.02.03,4.73h-1.84Zm4.53-6.49c.84,0,1.51-.21,2-.63.49-.41.73-1.06.72-1.94,0-.44-.13-.85-.37-1.23-.24-.39-.57-.7-1-.93-.42-.24-.89-.35-1.39-.35l-2.73.02.04,5.08,2.73-.02Z" fill="#0086af"/>
          <path d="m383.49,121.35l-.09-13.27,8.57-.06v1.73s-6.72.05-6.72.05l.03,4.02,6.12-.04v1.73s-6.11.04-6.11.04l.03,4.04,6.74-.05v1.73s-8.56.06-8.56.06Z" fill="#0086af"/>
          <path d="m399,121.24l-.09-13.27,4.78-.03c.86,0,1.62.18,2.29.55.67.37,1.19.87,1.56,1.5.37.63.56,1.32.57,2.07,0,1.24-.38,2.24-1.17,3-.79.76-1.84,1.17-3.14,1.22.31.23.63.5.95.8.32.3.7.68,1.12,1.12l2.74,2.98-2.47.02-4.42-4.91h-.9s.03,4.95.03,4.95h-1.84Zm4.5-6.69c.84,0,1.51-.21,2-.61.49-.4.73-1.02.72-1.86,0-.44-.13-.84-.37-1.2-.24-.37-.57-.66-.99-.87-.42-.21-.88-.32-1.4-.32l-2.71.02.03,4.86,2.71-.02Z" fill="#0086af"/>
        </g>
        <path d="m263.6,119.27l-10.03-3.77-.02-2.2,9.97-3.91v1.96s-8.29,3-8.29,3l8.35,2.88v2.04Z" fill="#0086af"/>
        <path d="m414.78,116.13l8.31-3-8.35-2.88v-1.96s10.01,3.77,10.01,3.77l.02,2.2-9.97,3.91v-2.04Z" fill="#0086af"/>
      </g>
      <g>
        <path d="m200.43,85.92c-5.08,7.03-13.25,11.67-22.59,11.74-15.5.11-28.13-12.35-28.24-27.85-.11-15.5,12.35-28.13,27.85-28.24,9.35-.07,17.64,4.46,22.76,11.48l-9.01,5.91c-3.46-3.71-8.31-6.46-13.68-6.42-9.11.06-16.41,7.77-16.34,17.18.07,9.41,7.48,17.02,16.58,16.95,5.37-.04,9.99-2.72,13.58-6.55l9.09,5.79Z" fill="#eeeef6"/>
        <path d="m228.41,82.71l8.53,4.4c-3.09,6.23-9.16,10.2-16.39,10.25-10.31.07-18.75-8.25-18.83-18.56-.07-10.31,8.25-18.75,18.56-18.83,11.34-.08,17.08,9.53,17.11,15.14l-21.51,11.07c.79.48,2.48,1.19,4.59,1.17,3.68-.03,6.14-2.27,7.93-4.64Zm-16.5-4.59l13.94-7.28c-.79-.6-2.97-1.61-5.26-1.59-4.4.03-8.05,3.92-8.68,8.87Z" fill="#eeeef6"/>
        <path d="m239.81,70.68c.44-6.46,6.32-10.9,14.76-10.96,6.69-.05,12.87,3.05,12.87,3.05l-4.59,8.29c-2.24-.83-5.02-1.59-7.79-1.57-1.81.01-4.46.33-4.45,1.9,0,1.09,1.28,1.92,6.23,2.91,8.27,1.63,12.16,5.89,12.2,10.83.04,6.15-5.89,11.92-15.36,11.99-7.9.06-15.11-3.99-15.11-3.99l4.35-7.93s5.26,2.19,10.27,2.16c2.53-.02,5-.64,4.99-2.15-.01-1.81-4.3-2.5-9.01-3.62-7.61-1.82-9.64-6.69-9.36-10.91Z" fill="#eeeef6"/>
        <path d="m307.61,60.56l.25,34.98-10.49.07-.39-3.56-8.83,4.83c-9.6-.78-17.13-8.81-17.2-18.58-.07-10.31,7.83-18.75,16.64-18.81,4.1-.03,7.07,2,9.2,4.76v-.06s.34-3.56.34-3.56l10.49-.07Zm-10.83,21.25c.47-1.09.71-2.36.7-3.68-.03-4.82-3.56-8.66-7.9-8.63-4.34.03-7.81,3.91-7.78,8.74.03,3.98,2.46,7.34,5.79,8.34l9.19-4.77Z" fill="#eeeef6"/>
        <path d="m324.58,60.44l.39,3.56,8.83-4.83.08,10.8-8.83,4.59.15,20.87-10.86.08-.25-34.98,10.49-.07Z" fill="#eeeef6"/>
        <path d="m399.65,94.89l-16.04.11-17.62-17.91.13,18.03-11.58.08-.38-53.67,24.61-.17c10.31-.07,18.75,8.31,18.83,18.62.07,9.35-6.7,16.63-15.67,18.02l17.73,16.88Zm-33.83-42.58l.11,15.86,13.03-.09c3.86-.03,6.97-3.73,6.94-8.01-.03-4.28-3.19-7.88-7.05-7.85l-13.03.09Z" fill="#eeeef6"/>
        <path d="m437.37,77.14c.07,10.31-8.25,18.75-18.56,18.83-10.31.07-18.75-8.25-18.83-18.56-.07-10.31,8.25-18.75,18.56-18.83,10.31-.07,18.75,8.25,18.83,18.56Zm-10.86.08c-.03-4.82-3.56-8.66-7.9-8.63-4.34.03-7.81,3.91-7.78,8.74.03,4.82,3.56,8.66,7.9,8.63,4.34-.03,7.81-3.91,7.78-8.74Z" fill="#eeeef6"/>
        <path d="m441.91,59.62l10.86-.08.25,35.58c.07,10.31-6.86,18.74-18.56,18.83l-.07-10.61c4.82-.58,7.82-3.31,7.78-8.14l-.25-35.58Zm0-17.91l10.61-.07.07,10.61-10.61.07-.07-10.61Z" fill="#eeeef6"/>
        <path d="m493.31,59.25l.25,34.98-10.49.07-.39-3.56-8.83,4.83c-9.6-.78-17.13-8.81-17.2-18.58-.07-10.31,7.83-18.75,16.63-18.81,4.1-.03,7.07,2,9.2,4.76v-.06s.34-3.56.34-3.56l10.49-.07Zm-10.83,21.25c.47-1.09.71-2.36.7-3.68-.03-4.82-3.56-8.66-7.9-8.63-4.34.03-7.81,3.91-7.78,8.74.03,3.98,2.46,7.34,5.79,8.34l9.19-4.77Z" fill="#eeeef6"/>
        <path d="m498.83,68.87c.44-6.46,6.32-10.9,14.76-10.96,6.69-.05,12.87,3.05,12.87,3.05l-4.59,8.29c-2.24-.83-5.02-1.59-7.79-1.57-1.81.01-4.46.33-4.45,1.9,0,1.09,1.28,1.92,6.23,2.91,8.27,1.63,12.16,5.89,12.2,10.83.04,6.15-5.89,11.92-15.36,11.99-7.9.06-15.11-4-15.11-4l4.35-7.93s5.26,2.19,10.27,2.16c2.53-.02,5-.64,4.99-2.15-.01-1.81-4.3-2.5-9.01-3.62-7.61-1.82-9.64-6.69-9.36-10.91Z" fill="#eeeef6"/>
      </g>
      <g>
        <path d="m72.06,80.7c13.27-13.25,10.66-33.89,10.66-33.89l-45.01.32.31,44.81,12.95-.09-.1-14.53,14.49,14.43,17.86-.13-11.15-10.92Zm-9.12-8.88l-12.21-11.94,19.32-.14s-2,8.44-7.11,12.07Z" fill="#0086af"/>
        <polygon points="60.89 118.57 60.89 118.57 18.33 94.4 17.98 45.45 42.36 31.15 24.38 20.93 0 35.24 .49 104.86 61.03 139.26 78.87 128.79 60.89 118.57" fill="#0086af"/>
        <polygon points="60.06 0 42.22 10.47 60.2 20.68 60.2 20.68 102.76 44.86 103.1 93.8 78.72 108.11 96.71 118.32 121.09 104.02 120.6 34.39 60.06 0" fill="#006c96"/>
      </g>
    </g>
  </g>
</svg>